<svg width="25" height="23" viewBox="0 0 25 23" fill="none" xmlns="http://www.w3.org/2000/svg">
<path d="M17.6068 0.283508C16.4807 0.301023 15.3792 0.615362 14.4135 1.19478C13.4478 1.7742 12.6521 2.59818 12.1068 3.58351C11.5614 2.59818 10.7657 1.7742 9.80001 1.19478C8.83431 0.615362 7.73282 0.301023 6.60677 0.283508C4.81171 0.361499 3.12048 1.14676 1.90255 2.46774C0.684629 3.78872 0.0390193 5.53803 0.10677 7.33351C0.10677 14.1085 11.0628 21.9335 11.5288 22.2655L12.1068 22.6745L12.6848 22.2655C13.1508 21.9355 24.1068 14.1085 24.1068 7.33351C24.1745 5.53803 23.5289 3.78872 22.311 2.46774C21.0931 1.14676 19.4018 0.361499 17.6068 0.283508ZM12.1068 20.2125C8.85377 17.7825 2.10677 11.8125 2.10677 7.33351C2.03841 6.06822 2.47314 4.82724 3.31613 3.88121C4.15913 2.93518 5.342 2.36086 6.60677 2.28351C7.87154 2.36086 9.05441 2.93518 9.89741 3.88121C10.7404 4.82724 11.1751 6.06822 11.1068 7.33351H13.1068C13.0384 6.06822 13.4731 4.82724 14.3161 3.88121C15.1591 2.93518 16.342 2.36086 17.6068 2.28351C18.8715 2.36086 20.0544 2.93518 20.8974 3.88121C21.7404 4.82724 22.1751 6.06822 22.1068 7.33351C22.1068 11.8145 15.3598 17.7825 12.1068 20.2125Z" fill="#253D4E"/>
</svg>
