<svg width="18" height="25" viewBox="0 0 18 25" fill="none" xmlns="http://www.w3.org/2000/svg">
<path d="M18 24.3665H16V19.3235C15.9992 18.5395 15.6874 17.7879 15.133 17.2335C14.5787 16.6791 13.827 16.3673 13.043 16.3665H4.957C4.173 16.3673 3.42134 16.6791 2.86696 17.2335C2.31259 17.7879 2.00079 18.5395 2 19.3235V24.3665H0V19.3235C0.00158783 18.0093 0.524351 16.7494 1.45363 15.8201C2.3829 14.8909 3.64281 14.3681 4.957 14.3665H13.043C14.3572 14.3681 15.6171 14.8909 16.5464 15.8201C17.4756 16.7494 17.9984 18.0093 18 19.3235V24.3665Z" fill="#253D4E"/>
<path d="M9 12.3665C7.81331 12.3665 6.65328 12.0146 5.66658 11.3553C4.67989 10.696 3.91085 9.75898 3.45673 8.66262C3.0026 7.56626 2.88378 6.35986 3.11529 5.19598C3.3468 4.03209 3.91825 2.96299 4.75736 2.12388C5.59648 1.28476 6.66558 0.713318 7.82946 0.481807C8.99335 0.250296 10.1997 0.369116 11.2961 0.823242C12.3925 1.27737 13.3295 2.0464 13.9888 3.0331C14.6481 4.01979 15 5.17983 15 6.36652C14.9984 7.95733 14.3658 9.48253 13.2409 10.6074C12.116 11.7323 10.5908 12.3649 9 12.3665ZM9 2.36652C8.20888 2.36652 7.43552 2.60111 6.77772 3.04064C6.11993 3.48017 5.60723 4.10488 5.30448 4.83579C5.00173 5.56669 4.92252 6.37096 5.07686 7.14688C5.2312 7.9228 5.61217 8.63554 6.17158 9.19495C6.73099 9.75436 7.44372 10.1353 8.21964 10.2897C8.99557 10.444 9.79983 10.3648 10.5307 10.062C11.2616 9.75929 11.8864 9.2466 12.3259 8.5888C12.7654 7.931 13 7.15764 13 6.36652C13 5.30565 12.5786 4.28824 11.8284 3.53809C11.0783 2.78795 10.0609 2.36652 9 2.36652Z" fill="#253D4E"/>
</svg>
